<svg width="100" height="100" xmlns="http://www.w3.org/2000/svg" xmlns:svg="http://www.w3.org/2000/svg">
 <g>
  <title>Layer 1</title>
  <path fill="#ffffff" id="svg_1" d="m38.1,74.4l25.4,0c2,0 4.4,-0.6 4.5,-2.2l3.4,-42.2c0,-0.3 -0.1,-0.6 -0.3,-0.9c-0.4,-0.5 -1.2,-0.5 -1.6,-0.5l-37.6,0c-0.4,0 -1.1,0.1 -1.6,0.5c-0.2,0.2 -0.3,0.6 -0.3,0.9l3.4,42.2c0.3,1.7 2.7,2.2 4.7,2.2zm27.9,-2.5c-0.2,0.2 -1.1,0.5 -2.6,0.5l-25.3,0c-1.5,0 -2.3,-0.3 -2.6,-0.5l-2.1,-25.9c1.7,0.8 3.7,1.4 6.6,1.4c4.9,0 7.5,-1.8 10.1,-3.6c2.4,-1.7 4.7,-3.2 8.9,-3.2c4.3,0 6.5,1.6 8.9,3.2c0.1,0.1 0.2,0.2 0.4,0.2l-2.3,27.9zm3.4,-41.3l-0.9,11.2c-2.4,-1.6 -5,-3.2 -9.5,-3.2c-4.9,0 -7.5,1.8 -10.1,3.6c-2.4,1.7 -4.7,3.2 -8.9,3.2c-3.1,0 -5.1,-0.8 -6.8,-1.8l-1.1,-13l37.3,0z"/>
 </g>
</svg>
