<?xml version="1.0" encoding="utf-8"?>
<!-- Generator: Adobe Illustrator 22.1.0, SVG Export Plug-In . SVG Version: 6.00 Build 0)  -->
<svg version="1.1" fill="#ffffff" id="Layer_1" xmlns="http://www.w3.org/2000/svg" xmlns:xlink="http://www.w3.org/1999/xlink" x="0px" y="0px"
	 viewBox="0 0 198.4 119.8" style="enable-background:new 0 0 198.4 119.8;" xml:space="preserve">
<g>
	<path d="M91.2,16.5c7.4,1.6,15.9,3.3,23.3,3.3c8.7,0,15.5-3.9,15.5-8.8c0-6.6-10.2-7.1-13.4-7.1c-9.4,0-17.5,2.8-26.1,9.2
		c-5.9-1.4-12.2-3-18.2-4.6C56.9,4.2,40.9,0,28.6,0C14.7,0,0,6.5,0,18.5c0,7.7,8.1,16,21.3,16c11.3,0,20.6-3.8,27.6-11.4l0.8-0.8
		l-2.6-1.9l-0.6,0.7c-6.3,6.8-14.8,10.2-25.2,10.2c-8.7,0-18.1-4.9-18.1-12.8c0-7.6,8.7-15.3,25.4-15.3c12,0,28,4.3,43.4,8.4
		c5.1,1.4,10.3,2.7,15.3,4C69.2,30.6,46,63.1,10.2,117.1l-0.5,0.8l2.6,1.9l0.6-0.9C49.8,63.3,73.2,30.4,91.2,16.5z M114.5,16.6
		c-6.3,0-13.6-1.3-19.8-2.6c7.1-4.8,13.9-6.9,21.9-6.9c2.4,0,10.2,0.3,10.2,3.9C126.8,13.7,122.1,16.6,114.5,16.6z"/>
	<path d="M163.1,64.5c1.5,0,3-1.6,3-3.2c0-1.5-1.5-3-3-3c-1.6,0-3.2,1.5-3.2,3C160,63,161.5,64.5,163.1,64.5z"/>
	<path d="M195.8,92.6l-0.6,0.7c-8.5,9.9-23.5,20.5-32.5,20.5c-1.9,0-5.1-0.8-5.1-5.8c0-4.1,1.6-8.5,4.1-12.5c0,0,0.1-0.1,0.1-0.1
		l0.7-0.8l-0.1-0.1c6.8-10.3,19-18.9,25.1-18.9c1.9,0,1.9,0.6,1.9,0.9c0,4.9-7.3,12.7-15.1,16.1l-0.9,0.4l1.2,3.1l1-0.4
		c8.1-3.7,17-12.4,17-19.1c0-2-1.8-4.1-5.1-4.1c-7.6,0-20.5,9.4-27.7,20.5l-0.4,0.5c-12.7,14.9-22.2,20.2-26.4,20.2
		c-0.5,0-1.4,0-1.4-1.9c0-4.5,5.8-13.8,18.9-29.8l4.3-5.2l-2.6-1.9l-4.1,5.1C140.8,88.5,137.8,92,137,93l-0.3,0.4
		c-14.1,16.5-23.7,20.9-26.8,20.9c-1,0-1.3-0.2-1.3-1.5c0-4,5.5-10.7,10.8-17.2c5.7-7,11.1-13.6,11.1-18.2c0-2.2-1.5-4.5-4.2-4.5
		c-5,0-12.8,6.4-19.6,13c4.3-6.8,4.3-8.7,4.3-9.5c0-2.5-1.4-4-3.6-4c-3.9,0-11.1,8-21.5,20.3l0,0l-0.6,0.7
		c-10,11.7-18.4,15.6-23.6,15.6c9.7-8.9,19.5-23.3,19.5-32.1c0-4.1-2.7-5.6-5.2-5.6c-6.7,0-16.8,8.9-21.6,18.5L53,88.5l-0.7,0.7
		c-6.8,6.8-11.6,15.7-11.6,21.6c0,3.9,2.3,6.5,5.8,6.5c3.1,0,7.1-1.9,11.8-5.6c7.3,2.2,18.5-3.8,28.7-15.6l0,0l0.8-0.9l0.5-0.6l0,0
		l0.2-0.3c7.1-8.3,15.9-18.7,18.7-18.7c0.2,0,0.3,0,0.4,0c0,0.1,0.1,0.3,0.1,0.8c0,3.9-12.8,20.8-19.7,29.8
		c-2.4,3.2-4.5,5.9-5.7,7.6l-0.6,0.8l2.5,1.9l0.6-0.8C102.7,92.4,119.7,76,126.3,76c0.7,0,1,0.1,1,1.3c0,3.5-5.2,9.9-10.2,16
		c-5.8,7-11.7,14.3-11.7,19.4c0,2.3,1.4,4.7,4.5,4.7c4,0,11.5-4.1,20.7-12.9c-1.4,2.9-2.1,5.2-2.1,7.1c0,2.5,1.6,5.1,4.6,5.1
		c4.2,0,12-3.9,22.2-14.2c-0.5,1.9-0.8,3.7-0.8,5.5c0,6.2,4.2,9,8.3,9c9,0,24.7-9.7,35-21.7l0.7-0.8L195.8,92.6z M75.9,74.5
		c1.2,0,2,0.4,2,2.4c0,8.2-10.4,22.9-19.9,31.1c-2.2-1.3-3.3-4.1-3.3-7.9C54.7,88.5,68.9,74.5,75.9,74.5z M51.5,100
		c0,5.6,1.9,8.6,3.8,10.1c-3.5,2.6-6.6,4-8.8,4c-1.3,0-2.6-0.4-2.6-3.3c0-4.6,3.5-11.4,8.8-17.2C51.9,95.8,51.5,98,51.5,100z"/>
</g>
</svg>
